<?xml version="1.0" encoding="UTF-8" standalone="no"?>
<!-- Created with Inkscape (http://www.inkscape.org/) -->

<svg
   xmlns:dc="http://purl.org/dc/elements/1.1/"
   xmlns:cc="http://creativecommons.org/ns#"
   xmlns:rdf="http://www.w3.org/1999/02/22-rdf-syntax-ns#"
   xmlns:svg="http://www.w3.org/2000/svg"
   xmlns="http://www.w3.org/2000/svg"
   xmlns:xlink="http://www.w3.org/1999/xlink"
   xmlns:sodipodi="http://sodipodi.sourceforge.net/DTD/sodipodi-0.dtd"
   xmlns:inkscape="http://www.inkscape.org/namespaces/inkscape"
   width="300"
   height="200"
   id="svg3034"
   version="1.1"
   inkscape:version="0.48.4 r9939"
   sodipodi:docname="cloud.svg">
  <defs
     id="defs3036">
    <linearGradient
       id="linearGradient3846">
      <stop
         id="stop3848"
         offset="0"
         style="stop-color:#545e80;stop-opacity:1;" />
      <stop
         id="stop3850"
         offset="1"
         style="stop-color:#ffffff;stop-opacity:1" />
    </linearGradient>
    <linearGradient
       id="linearGradient3825">
      <stop
         style="stop-color:#9dc2f2;stop-opacity:1"
         offset="0"
         id="stop3827" />
      <stop
         style="stop-color:#ffffff;stop-opacity:1"
         offset="1"
         id="stop3829" />
    </linearGradient>
    <filter
       inkscape:collect="always"
       id="filter3926"
       x="-0.10219646"
       width="1.2043929"
       y="-0.32944176"
       height="1.6588835"
       color-interpolation-filters="sRGB">
      <feGaussianBlur
         inkscape:collect="always"
         stdDeviation="10.972812"
         id="feGaussianBlur3928" />
    </filter>
    <linearGradient
       inkscape:collect="always"
       xlink:href="#linearGradient3825"
       id="linearGradient3930"
       gradientUnits="userSpaceOnUse"
       gradientTransform="translate(5.330355,0)"
       x1="309.13333"
       y1="284.88516"
       x2="308.05902"
       y2="147.50441" />
    <linearGradient
       inkscape:collect="always"
       xlink:href="#linearGradient3846"
       id="linearGradient3932"
       gradientUnits="userSpaceOnUse"
       gradientTransform="matrix(0.93065034,0,0,0.93065034,24.202323,16.899187)"
       x1="309.13333"
       y1="284.88516"
       x2="308.05902"
       y2="147.50441" />
    <filter
       inkscape:collect="always"
       id="filter3942"
       color-interpolation-filters="sRGB">
      <feGaussianBlur
         inkscape:collect="always"
         stdDeviation="1.1882031"
         id="feGaussianBlur3944" />
    </filter>
  </defs>
  <sodipodi:namedview
     id="base"
     pagecolor="#ffffff"
     bordercolor="#666666"
     borderopacity="1.0"
     inkscape:pageopacity="0.0"
     inkscape:pageshadow="2"
     inkscape:zoom="1.979899"
     inkscape:cx="101.35711"
     inkscape:cy="92.906946"
     inkscape:document-units="px"
     inkscape:current-layer="layer1"
     showgrid="false" />
  <metadata
     id="metadata3039">
    <rdf:RDF>
      <cc:Work
         rdf:about="">
        <dc:format>image/svg+xml</dc:format>
        <dc:type
           rdf:resource="http://purl.org/dc/dcmitype/StillImage" />
        <dc:title />
      </cc:Work>
    </rdf:RDF>
  </metadata>
  <g
     inkscape:label="Layer 1"
     inkscape:groupmode="layer"
     id="layer1"
     transform="translate(0,-852.36218)">
    <g
       id="g3854"
       transform="matrix(0.99033307,0,0,1.0186839,-156.39011,708.87175)"
       style="filter:url(#filter3942)"
       inkscape:export-filename="/home/dimon/sandbox/ceata/ceata-home/img/cloud.png"
       inkscape:export-xdpi="90"
       inkscape:export-ydpi="90">
      <path
         inkscape:connector-curvature="0"
         id="path3042"
         d="m 358.89062,143.71033 c -17.89204,0 -33.82641,8.38875 -44.09375,21.4375 -10.84645,-9.24755 -24.87937,-14.84375 -40.25,-14.84375 -24.33794,0 -45.40216,13.99327 -55.59375,34.375 -28.80962,0.55378 -52,24.05792 -52,53 0,18.92946 9.92118,35.52214 24.84375,44.90625 3.88312,26.31879 26.53955,46.5 53.9375,46.5 25.15702,0 46.32256,-17.02709 52.625,-40.1875 10.17431,15.66935 27.83168,26.0625 47.90625,26.0625 16.17037,0 30.74007,-6.75699 41.125,-17.5625 3.99857,0.88741 8.14054,1.375 12.40625,1.375 31.52089,0 57.0625,-25.54161 57.0625,-57.0625 0,-26.85265 -18.5505,-49.35566 -43.53125,-55.4375 -6.04863,-24.44012 -28.12804,-42.5625 -54.4375,-42.5625 z"
         style="fill:url(#linearGradient3930);fill-opacity:1;stroke:none" />
      <path
         id="path3842"
         d="m 440.75,261.15625 c -2.08811,-0.68189 -4.07262,-1.41497 -6.21875,-2.0625 -5.53527,-1.67009 -11.25922,-3.22558 -17.15625,-4.65625 -5.89703,-1.43067 -11.96357,-2.73057 -18.1875,-3.90625 -6.22393,-1.17568 -12.60904,-2.21988 -19.125,-3.125 -6.51596,-0.90512 -13.16437,-1.66227 -19.9375,-2.28125 -6.77313,-0.61898 -13.66083,-1.08897 -20.65625,-1.40625 -6.99542,-0.31728 -14.09839,-0.5 -21.28125,-0.5 -7.18286,0 -14.25458,0.18272 -21.25,0.5 -6.99542,0.31728 -13.91437,0.78727 -20.6875,1.40625 -6.77313,0.61898 -13.42154,1.37613 -19.9375,2.28125 -6.51596,0.90512 -12.90107,1.94932 -19.125,3.125 -6.22393,1.17568 -12.29047,2.47558 -18.1875,3.90625 -5.89703,1.43067 -11.62098,2.98616 -17.15625,4.65625 -5.53527,1.67009 -10.86136,3.44981 -16,5.34375 -0.96641,0.35619 -1.8296,0.76122 -2.78125,1.125 3.85644,5.72295 8.83571,10.63258 14.6875,14.3125 3.61383,24.49359 24.68959,43.28125 50.1875,43.28125 23.41238,0 43.10338,-15.852 48.96875,-37.40625 9.46872,14.58269 25.91135,24.28125 44.59375,24.28125 15.04895,0 28.6165,-6.2876 38.28125,-16.34375 3.72127,0.82587 7.56137,1.25 11.53125,1.25 22.51803,0 41.71185,-14.00313 49.4375,-33.78125 z"
         style="opacity:0.30882353;fill:url(#linearGradient3932);fill-opacity:1;stroke:none;filter:url(#filter3926)"
         inkscape:connector-curvature="0"
         transform="matrix(0.95768749,0,0,0.74100019,10.672155,75.365813)" />
    </g>
  </g>
</svg>
