<?xml version="1.0" encoding="UTF-8" standalone="no"?>
<!-- Created with Inkscape (http://www.inkscape.org/) -->

<svg
   xmlns:dc="http://purl.org/dc/elements/1.1/"
   xmlns:cc="http://creativecommons.org/ns#"
   xmlns:rdf="http://www.w3.org/1999/02/22-rdf-syntax-ns#"
   xmlns:svg="http://www.w3.org/2000/svg"
   xmlns="http://www.w3.org/2000/svg"
   xmlns:xlink="http://www.w3.org/1999/xlink"
   xmlns:sodipodi="http://sodipodi.sourceforge.net/DTD/sodipodi-0.dtd"
   xmlns:inkscape="http://www.inkscape.org/namespaces/inkscape"
   width="217.81514"
   height="217.82228"
   id="svg5406"
   version="1.1"
   inkscape:version="0.48.2 r9819"
   sodipodi:docname="New document 7">
  <defs
     id="defs5408">
    <radialGradient
       inkscape:collect="always"
       xlink:href="#linearGradient4145"
       id="radialGradient4151"
       cx="-4835.6792"
       cy="-854.625"
       fx="-4835.6792"
       fy="-854.625"
       r="131.69695"
       gradientTransform="matrix(1.7517917,-1.0524346e-7,1.0755524e-7,1.7902716,3635.4236,675.38543)"
       gradientUnits="userSpaceOnUse" />
    <linearGradient
       id="linearGradient4145">
      <stop
         style="stop-color:#fffd44;stop-opacity:1;"
         offset="0"
         id="stop4147" />
      <stop
         style="stop-color:#ffd429;stop-opacity:1;"
         offset="1"
         id="stop4149" />
    </linearGradient>
    <radialGradient
       inkscape:collect="always"
       xlink:href="#linearGradient4101"
       id="radialGradient4123"
       gradientUnits="userSpaceOnUse"
       gradientTransform="matrix(0.28598689,0,0,0.28599627,-3218.5215,-1577.1588)"
       cx="-5654.6719"
       cy="2526.375"
       fx="-5654.6719"
       fy="2526.375"
       r="474.76566" />
    <linearGradient
       id="linearGradient4101">
      <stop
         style="stop-color:#ffd429;stop-opacity:0;"
         offset="0"
         id="stop4103" />
      <stop
         id="stop4109"
         offset="0.42553097"
         style="stop-color:#ffd429;stop-opacity:0;" />
      <stop
         style="stop-color:#ffd429;stop-opacity:1;"
         offset="0.73003924"
         id="stop4111" />
      <stop
         style="stop-color:#ffd429;stop-opacity:1;"
         offset="1"
         id="stop4105" />
    </linearGradient>
    <radialGradient
       r="474.76566"
       fy="2526.375"
       fx="-5654.6719"
       cy="2526.375"
       cx="-5654.6719"
       gradientTransform="matrix(0.28598689,0,0,0.28599627,-3218.5215,-1577.1588)"
       gradientUnits="userSpaceOnUse"
       id="radialGradient5404"
       xlink:href="#linearGradient4101"
       inkscape:collect="always" />
  </defs>
  <sodipodi:namedview
     id="base"
     pagecolor="#ffffff"
     bordercolor="#666666"
     borderopacity="1.0"
     inkscape:pageopacity="0.0"
     inkscape:pageshadow="2"
     inkscape:zoom="0.7"
     inkscape:cx="83.484755"
     inkscape:cy="78.874279"
     inkscape:document-units="px"
     inkscape:current-layer="layer1"
     showgrid="false"
     fit-margin-top="0"
     fit-margin-left="0"
     fit-margin-right="0"
     fit-margin-bottom="0"
     inkscape:window-width="812"
     inkscape:window-height="655"
     inkscape:window-x="75"
     inkscape:window-y="75"
     inkscape:window-maximized="0" />
  <metadata
     id="metadata5411">
    <rdf:RDF>
      <cc:Work
         rdf:about="">
        <dc:format>image/svg+xml</dc:format>
        <dc:type
           rdf:resource="http://purl.org/dc/dcmitype/StillImage" />
        <dc:title></dc:title>
      </cc:Work>
    </rdf:RDF>
  </metadata>
  <g
     inkscape:label="Layer 1"
     inkscape:groupmode="layer"
     id="layer1"
     transform="translate(-579.66386,-629.16529)">
    <g
       id="g4119"
       transform="matrix(0.80210767,0,0,0.80210767,4567.3103,1423.5777)">
      <path
         inkscape:connector-curvature="0"
         id="path4113"
         d="m -4802.5671,-986.32196 c -17.7702,14.98377 -24.3237,29.80658 -30.6185,45.53448 -16.4562,-13.69717 -32.8046,-27.11187 -39.6628,-44.45311 -7.8988,21.8649 -6.1666,37.98653 -3.7536,54.75756 -21.0991,-3.63383 -41.9624,-7.08123 -56.5717,-18.66956 4.0912,22.88167 13.6476,35.97238 24.1211,49.28804 -20.0891,7.40251 -39.8773,14.85874 -58.3234,12.12765 14.9838,17.77016 29.8066,24.3236 45.5344,30.61844 -13.6965,16.45537 -27.1126,32.80493 -44.4531,39.66283 21.8649,7.89877 37.9866,6.16659 54.7576,3.75358 -3.6339,21.09912 -7.0813,41.96235 -18.6696,56.57175 22.883,-4.09153 35.9716,-13.65593 49.2881,-24.13014 7.4034,20.09184 14.8501,39.88385 12.1186,58.3324 17.7707,-14.98425 24.3324,-29.80603 30.6274,-45.53448 16.4554,13.69648 32.805,27.11269 39.6629,44.45311 7.8988,-21.86487 6.1665,-37.98653 3.7536,-54.75756 21.0991,3.63383 41.9623,7.08123 56.5718,18.66956 -4.0915,-22.88293 -13.656,-35.9716 -24.1302,-49.28804 20.0906,-7.40306 39.8849,-14.85891 58.3324,-12.12764 -14.9825,-17.76865 -29.8081,-24.32407 -45.5345,-30.61845 13.6965,-16.45537 27.1037,-32.80495 44.4441,-39.66283 -21.8629,-7.8981 -37.9791,-6.16628 -54.7486,-3.75358 3.6339,-21.09912 7.0813,-41.96237 18.6696,-56.57175 -22.8829,4.09153 -35.9716,13.65593 -49.2881,24.13014 -7.4036,-20.09238 -14.8591,-39.88339 -12.1275,-58.3324 z"
         style="color:#000000;fill:url(#radialGradient4151);fill-opacity:1;fill-rule:nonzero;stroke:none;stroke-width:99.99999237;marker:none;visibility:visible;display:inline;overflow:visible;enable-background:accumulate" />
      <path
         id="path4115"
         d="m -4837.7793,-990.4062 c -13.2886,19.07553 -15.7839,35.09142 -17.7937,51.91554 -19.4398,-8.97088 -38.7031,-17.69932 -49.8153,-32.674 -1.9705,23.16091 3.8754,38.28223 10.5457,53.85491 -21.3205,1.95083 -42.3657,4.0251 -59.4763,-3.38714 9.8739,21.04274 22.4983,31.20986 36.0611,41.36085 -17.4888,12.34974 -34.6779,24.67503 -53.2025,26.81127 19.0755,13.28864 35.0915,15.78387 51.9156,17.79373 -8.9709,19.43968 -17.6993,38.70304 -32.674,49.81535 23.1622,1.97042 38.2813,-3.88394 53.8549,-10.5547 1.951,21.32339 4.0171,42.37231 -3.3961,59.48528 21.0434,-9.8743 31.2184,-22.49793 41.3698,-36.06118 12.3498,17.48876 24.675,34.678 26.8112,53.20249 13.2887,-19.07549 15.7839,-35.09142 17.7937,-51.91554 19.4398,8.97086 38.7031,17.69935 49.8155,32.674 1.9704,-23.16217 -3.8841,-38.28132 -10.5547,-53.85491 21.3219,-1.95098 42.3732,-4.02561 59.4852,3.38714 -9.8732,-21.04097 -22.4997,-31.21063 -36.0611,-41.36085 17.4887,-12.34974 34.6689,-24.67507 53.1935,-26.81127 -19.0739,-13.28752 -35.0841,-15.78399 -51.9066,-17.79373 8.9708,-19.43971 17.6993,-38.70306 32.674,-49.81534 -23.1623,-1.97042 -38.2813,3.88395 -53.855,10.55469 -1.9511,-21.32393 -4.0261,-42.37183 3.3873,-59.48528 -21.0428,9.87399 -31.2098,22.49841 -41.361,36.06118 -12.3503,-17.48965 -24.6749,-34.67709 -26.8112,-53.20249 z m 2.1002,65.42843 c 38.8548,0 70.3528,31.49802 70.3528,70.35277 0,38.85475 -31.498,70.35278 -70.3528,70.35278 -38.8547,0 -70.3527,-31.49803 -70.3527,-70.35278 0,-38.85475 31.498,-70.35277 70.3527,-70.35277 z"
         style="color:#000000;fill:url(#radialGradient5404);fill-opacity:1;fill-rule:nonzero;stroke:none;stroke-width:99.99999237;marker:none;visibility:visible;display:inline;overflow:visible;enable-background:accumulate"
         inkscape:connector-curvature="0" />
    </g>
  </g>
</svg>
